<?xml version="1.0" encoding="UTF-8"?>
<svg id="Layer_2" data-name="Layer 2" xmlns="http://www.w3.org/2000/svg" viewBox="0 0 392.06 103.01">
  <defs>
    <style>
      .cls-1 {
        fill: #fff;
      }
    </style>
  </defs>
  <g id="Layer_1-2" data-name="Layer 1">
    <g>
      <path class="cls-1" d="M120.73,80.32V21.84h10.05v58.48h-10.05ZM129.32,66.95v-11.75h1.7l16.05-17.83h11.63l-20.02,21.76h-1.86l-7.5,7.82ZM147.8,80.32l-14.39-19.53,6.44-7.46,19.57,26.99h-11.63Z"/>
      <path class="cls-1" d="M180.31,81.17c-4.21,0-7.88-.9-10.98-2.7-3.11-1.8-5.52-4.36-7.23-7.7s-2.57-7.32-2.57-11.94v-.08c0-4.59.86-8.56,2.59-11.89,1.73-3.34,4.15-5.9,7.25-7.7,3.11-1.8,6.74-2.7,10.9-2.7s7.84.9,10.96,2.7c3.12,1.8,5.54,4.36,7.27,7.68,1.73,3.32,2.59,7.29,2.59,11.91v.08c0,4.65-.86,8.64-2.57,11.98-1.72,3.34-4.13,5.9-7.23,7.68-3.11,1.78-6.77,2.68-10.98,2.68ZM180.35,73.03c2.13,0,3.99-.55,5.55-1.66,1.57-1.11,2.78-2.72,3.63-4.84.85-2.12,1.28-4.68,1.28-7.68v-.08c0-2.97-.43-5.51-1.3-7.62-.87-2.11-2.09-3.71-3.67-4.82-1.58-1.11-3.44-1.66-5.57-1.66s-3.91.55-5.49,1.66c-1.58,1.11-2.81,2.71-3.69,4.82s-1.32,4.65-1.32,7.62v.08c0,3,.44,5.56,1.32,7.68.88,2.12,2.11,3.74,3.69,4.84,1.58,1.11,3.44,1.66,5.57,1.66Z"/>
      <path class="cls-1" d="M223.47,81.17c-4.46,0-7.77-.97-9.95-2.92s-3.26-5.13-3.26-9.56v-23.55h-6.08v-7.78h6.08v-10.9h10.25v10.9h7.98v7.78h-7.98v22.74c0,2.08.47,3.52,1.4,4.32.93.8,2.3,1.2,4.11,1.2.51,0,.97-.02,1.36-.06.39-.04.76-.07,1.11-.1v7.58c-.59.08-1.32.16-2.17.24-.85.08-1.8.12-2.86.12Z"/>
      <path class="cls-1" d="M247.5,81.05c-2.84,0-5.34-.55-7.52-1.64-2.17-1.09-3.86-2.62-5.07-4.58s-1.8-4.21-1.8-6.75v-.08c0-2.57.64-4.76,1.92-6.59,1.28-1.82,3.14-3.27,5.57-4.34s5.38-1.71,8.83-1.93l16.41-1.01v6.69l-15,.93c-2.49.16-4.39.76-5.71,1.78-1.32,1.03-1.99,2.39-1.99,4.09v.04c0,1.76.67,3.14,2.01,4.15,1.34,1.01,3.11,1.52,5.33,1.52,1.95,0,3.68-.39,5.21-1.18,1.53-.78,2.74-1.85,3.63-3.2.89-1.35,1.34-2.88,1.34-4.58v-12.89c0-2.16-.68-3.87-2.05-5.13-1.36-1.26-3.33-1.88-5.9-1.88-2.38,0-4.28.51-5.71,1.52-1.43,1.01-2.32,2.32-2.67,3.91l-.08.36h-9.32l.04-.49c.22-2.54,1.07-4.82,2.55-6.83,1.49-2.01,3.55-3.6,6.18-4.76,2.63-1.16,5.76-1.74,9.38-1.74s6.71.59,9.34,1.78c2.63,1.19,4.67,2.85,6.12,4.99,1.45,2.13,2.17,4.65,2.17,7.54v29.54h-10.05v-6.61h-.24c-.81,1.49-1.86,2.78-3.16,3.89-1.3,1.11-2.78,1.96-4.44,2.55-1.66.59-3.44.89-5.33.89Z"/>
      <path class="cls-1" d="M293.5,81.17c-3.16,0-5.84-.64-8.04-1.93-2.2-1.28-3.88-3.13-5.05-5.53-1.16-2.41-1.74-5.25-1.74-8.55v-27.8h10.05v25.77c0,3.05.72,5.41,2.15,7.07,1.43,1.66,3.59,2.49,6.48,2.49,1.43,0,2.74-.25,3.91-.75,1.17-.5,2.18-1.21,3.02-2.13.84-.92,1.47-2.02,1.91-3.3.43-1.28.65-2.71.65-4.28v-24.88h10.09v42.96h-10.09v-6.73h-.2c-.76,1.51-1.74,2.84-2.96,3.99s-2.67,2.03-4.38,2.65-3.63.93-5.8.93Z"/>
      <path class="cls-1" d="M341.12,81.17c-4.46,0-7.78-.97-9.95-2.92s-3.26-5.13-3.26-9.56v-23.55h-6.08v-7.78h6.08v-10.9h10.25v10.9h7.98v7.78h-7.98v22.74c0,2.08.47,3.52,1.4,4.32.93.8,2.3,1.2,4.11,1.2.51,0,.97-.02,1.36-.06.39-.04.76-.07,1.12-.1v7.58c-.59.08-1.32.16-2.17.24-.85.08-1.8.12-2.86.12Z"/>
      <path class="cls-1" d="M353.32,80.32V21.84h10.09v22.74h.2c1.13-2.59,2.83-4.59,5.09-6,2.25-1.4,4.98-2.11,8.17-2.11s5.79.71,8.06,2.13c2.27,1.42,4.03,3.4,5.27,5.96,1.24,2.55,1.86,5.56,1.86,9.02v26.75h-10.09v-24.76c0-3.3-.8-5.88-2.39-7.76-1.59-1.88-3.84-2.82-6.73-2.82-1.89,0-3.55.45-4.96,1.36-1.42.91-2.52,2.15-3.3,3.73-.78,1.58-1.17,3.41-1.17,5.49v24.76h-10.09Z"/>
    </g>
    <path class="cls-1" d="M95.12,4.27c-2.44-.47-4.9-.9-7.36-1.29C77.9,1.41,67.85.45,57.63.12c-2.55-.08-5.12-.12-7.69-.12-14.1,0-27.92,1.22-41.34,3.57C5.72,4.07,2.86,4.62.02,5.23c-.05,1.44.03,10.05.23,12.86.51,7.06,1.66,13.94,3.39,20.58,5.97,23,18.86,43.2,36.3,58.28,2.46,2.12,5.01,4.15,7.65,6.06.26-.19,6.53-5.03,9.23-7.46,22.48-20.14,37.01-48.97,38.32-81.21.04-.9.05-8.32-.03-10.07ZM58.53,85.48s-.06.06-.11.1c-2.6,2.34-5.67,4.66-9.11,6.88l-.53.34-.54-.33-3-1.86-1.34-.83,1.33-.86c12.81-8.27,18.42-17.07,18.18-20.42-.05-.72-.29-.83-.4-.88-.1-.05-.33-.12-.76-.12-.84,0-3.22.33-7.28,3.34-10.27,7.64-16.16,10.74-19.29,12.01l-.57.23-.46-.4c-.97-.85-1.9-1.7-2.77-2.54l-.24-.24-1.04-.94,1.77-.61s5.15-1.18,19.42-11.79c3.88-2.88,7.49-4.4,10.44-4.4h0c1.1,0,2.11.21,3.01.62,2.07.95,3.32,2.85,3.5,5.35.34,4.81-3.47,11.3-10.2,17.36ZM78.32,61.81c-1.38,2.42-2.89,4.82-4.51,7.12l-3.04,4.31s7-12.52-2.02-16.09c-.78-.31-1.69-.5-2.73-.5-4.31,0-8.97,2.09-15.55,7.19-6.53,5.05-13.7,9.31-21.3,12.64l-.65.28-.48-.51c-.08-.09-.16-.17-.23-.25-.74-.81-1.46-1.62-2.13-2.43l-.87-1.03,1.24-.53c7.59-3.23,14.71-7.4,21.15-12.39,7.7-5.96,14.77-9.11,20.46-9.11,1.77,0,3.38.31,4.79.93,3.44,1.5,5.55,4.66,5.93,8.9.03.32.05.66.05.99v.27s-.13.24-.13.24ZM84.33,48.78c-.65,1.81-1.37,3.59-2.13,5.31l-1.34,2.49c.43-.27,1.21-7.49-5.44-10.51-1.28-.58-2.82-.85-4.54-.85-6.76,0-16.39,4.45-26.41,12.22-6.59,5.11-13.63,9.24-20.9,12.28l-.72.3-.47-.62c-.72-.96-1.4-1.91-2.02-2.82l-.7-1.02,1.15-.47c7.1-2.9,13.96-6.89,20.39-11.88,11.1-8.59,21.64-13.33,29.7-13.33,2.46,0,4.7.43,6.66,1.29,3.06,1.33,5.4,3.71,6.76,6.87l.16.36-.13.37ZM88.14,34.59c-.23,1.31-.5,2.64-.81,3.98l-.45,1.97-1.29-1.55c-1.11-1.33-2.51-2.37-4.16-3.09-1.89-.82-4.11-1.24-6.61-1.24-9.68,0-22.32,4.25-36.96,17-5.61,4.89-12.68,7.71-20.2,9.36l-.72.16-.36-.64c-.59-1.02-1.15-2.07-1.69-3.12l-.61-1.18,1.3-.26c7.14-1.42,13.53-4.3,19.01-8.54,15.09-11.69,29.36-18.13,40.2-18.13h0c3.25,0,6.2.57,8.78,1.69,1.56.68,2.99,1.57,4.25,2.66l.43.37-.1.56ZM80.2,11.97c-13.37,0-26.39,3.77-36.84,13.05-15.95,11.96-20.88,14.05-33.55,13.88-1.63-6.57-2.5-13.45-2.5-20.53,0-.71,0-5.07.03-5.77,25.32-6.24,63.2-5.22,81.62-1.71.06.56.44,6.04.45,8.25-1.82-4.59-3.98-7.17-9.22-7.17Z"/>
  </g>
</svg>