<?xml version="1.0" encoding="UTF-8"?>
<svg id="Layer_2" data-name="Layer 2" xmlns="http://www.w3.org/2000/svg" viewBox="0 0 100.73 100.73">
  <defs>
    <style>
      .cls-1 {
        fill: #fff;
      }

      .cls-2 {
        fill: #0077b6;
      }
    </style>
  </defs>
  <g id="Layer_1-2" data-name="Layer 1">
    <rect class="cls-2" width="100.73" height="100.73" rx="19.52" ry="19.52"/>
    <path class="cls-1" d="M85.95,18.83c-1.83-.35-3.66-.67-5.51-.97-7.38-1.17-14.9-1.9-22.55-2.14-1.91-.06-3.83-.09-5.76-.09-10.56,0-20.9.92-30.95,2.67-2.16.38-4.3.79-6.42,1.25-.04,1.07.02,7.52.17,9.63.38,5.28,1.24,10.43,2.54,15.41,4.47,17.21,14.12,32.34,27.17,43.63,1.84,1.59,3.75,3.11,5.73,4.54.2-.14,4.89-3.77,6.91-5.58,16.83-15.08,27.71-36.66,28.69-60.8.03-.67.04-6.23-.02-7.54ZM58.55,79.62s-.05.05-.08.07c-1.95,1.75-4.24,3.49-6.82,5.15l-.4.26-.4-.25-2.24-1.39-1-.62.99-.64c9.59-6.19,13.79-12.78,13.61-15.28-.04-.54-.22-.62-.3-.66-.08-.03-.25-.09-.57-.09-.63,0-2.41.24-5.45,2.5-7.69,5.72-12.1,8.04-14.44,8.99l-.43.17-.35-.3c-.73-.63-1.42-1.27-2.08-1.9l-.18-.18-.78-.7,1.33-.45s3.85-.88,14.54-8.83c2.9-2.16,5.6-3.3,7.81-3.3h0c.82,0,1.58.16,2.25.46,1.55.71,2.48,2.13,2.62,4,.25,3.6-2.6,8.46-7.64,13ZM73.37,61.9c-1.03,1.81-2.17,3.61-3.38,5.33l-2.27,3.22s5.24-9.37-1.51-12.05c-.58-.23-1.26-.38-2.04-.38-3.23,0-6.72,1.57-11.64,5.38-4.89,3.78-10.25,6.97-15.95,9.46l-.48.21-.36-.38c-.06-.06-.12-.13-.17-.19-.55-.6-1.09-1.22-1.6-1.82l-.65-.77.93-.4c5.68-2.42,11.01-5.54,15.83-9.28,5.76-4.46,11.06-6.82,15.32-6.82,1.32,0,2.53.23,3.59.7,2.58,1.12,4.15,3.49,4.44,6.66.02.24.04.49.04.74v.2s-.1.18-.1.18ZM77.87,52.14c-.49,1.35-1.03,2.69-1.59,3.98l-1.01,1.86c.32-.2.91-5.61-4.07-7.87-.96-.44-2.11-.64-3.4-.64-5.06,0-12.27,3.33-19.77,9.15-4.94,3.82-10.2,6.92-15.65,9.2l-.54.23-.35-.47c-.54-.72-1.05-1.43-1.51-2.11l-.53-.77.86-.35c5.32-2.17,10.45-5.16,15.27-8.89,8.31-6.43,16.2-9.98,22.23-9.98,1.84,0,3.52.32,4.98.96,2.29,1,4.04,2.78,5.06,5.14l.12.27-.1.28ZM80.72,41.52c-.17.98-.38,1.98-.6,2.98l-.34,1.47-.97-1.16c-.83-1-1.88-1.78-3.11-2.31-1.41-.62-3.08-.93-4.95-.93-7.25,0-16.71,3.18-27.67,12.73-4.2,3.66-9.49,5.77-15.12,7l-.54.12-.27-.48c-.44-.77-.86-1.55-1.27-2.33l-.45-.88.97-.19c5.34-1.06,10.13-3.22,14.23-6.39,11.29-8.75,21.98-13.57,30.09-13.57h0c2.43,0,4.64.43,6.57,1.27,1.17.51,2.24,1.18,3.18,1.99l.32.28-.07.42ZM74.77,24.59c-10.01,0-19.76,2.82-27.58,9.77-11.94,8.96-15.63,10.52-25.11,10.39-1.22-4.92-1.87-10.07-1.87-15.37,0-.53,0-3.8.02-4.32,18.96-4.67,47.32-3.91,61.1-1.28.04.42.33,4.52.34,6.18-1.36-3.44-2.98-5.37-6.9-5.37Z"/>
  </g>
</svg>